<svg width="70" height="56" viewBox="0 0 70 56" fill="none" xmlns="http://www.w3.org/2000/svg">
<path d="M48.1622 45.5264C27.7686 46.3155 12.0844 49.8064 2.34629 51.9739C2.06603 52.0363 1.79069 52.0976 1.52031 52.1577C0.632187 52.3545 0 53.1431 0 54.0531C0 55.125 0.869531 56 1.9425 56L48.1622 45.5264ZM48.1622 45.5264C48.3469 45.6572 48.5337 45.7856 48.7226 45.9116L49 45.4956L48.9826 44.9959C48.7591 45.0037 48.5361 45.0118 48.3137 45.0202C42.1669 40.6001 38.5 33.4808 38.5 25.8759V13.9956L31.9834 11.2777M48.1622 45.5264L69.4821 43.859M31.9834 11.2777L32.207 10.8304C32.2029 10.8284 32.1989 10.8263 32.1949 10.8241M31.9834 11.2777L32.1759 10.8162L32.1949 10.8241M31.9834 11.2777C31.3381 10.955 31.3381 10.0352 31.9834 9.7125M32.1949 10.8241L38.6925 13.5342L39 13.6624V13.9956V25.8759C39 33.5925 42.8572 40.7984 49.2774 45.0796L50.5695 45.9413L49.0174 45.9953C28.2619 46.718 12.3183 50.2666 2.45203 52.4626C2.17274 52.5248 1.89831 52.5858 1.62879 52.6457L1.62852 52.6458C0.969617 52.7919 0.5 53.3772 0.5 54.0531C0.5 54.8505 1.14732 55.5 1.9425 55.5H56.5294H56.5295C63.219 55.5011 69.1283 50.4743 69.4821 43.859M32.1949 10.8241C31.9343 10.6826 31.9343 10.3076 32.1948 10.1661M69.4821 43.859C69.7471 38.8866 67.0938 34.3564 62.6879 32.1529M69.4821 43.859L62.6879 32.1529M62.6879 32.1529C62.6878 32.1529 62.6878 32.1528 62.6878 32.1528M62.6879 32.1529L62.6878 32.1528M62.6878 32.1528L51.6782 26.6502L51.6781 26.6502C50.7232 26.1728 49.9201 25.4389 49.3588 24.5308C48.7975 23.6227 48.5001 22.5762 48.5 21.5086V17.4956V16.9956H49H56H56.1763L56.3137 17.1063L59.386 19.5814L59.4069 19.5983L59.4259 19.6172C59.9883 20.1796 60.7514 20.4956 61.5475 20.4956H64.9348C65.4919 20.4956 66.038 20.3404 66.5119 20.0475C66.9858 19.7546 67.3688 19.3355 67.6179 18.8372L68.0652 19.0608L67.6179 18.8372L69.1831 15.7069C69.4322 15.2086 69.5377 14.6507 69.4877 14.0959C69.4377 13.541 69.2341 13.011 68.8999 12.5652L60.7484 1.69578M62.6878 32.1528L60.7484 1.69578M32.1948 10.1661L32.1758 10.174L31.9834 9.7125M32.1948 10.1661L38.6924 7.45712L39.4624 7.13611L38.8163 6.60839L32.0977 1.1204M32.1948 10.1661C32.1988 10.1639 32.2029 10.1618 32.207 10.1597L31.9834 9.7125M31.9834 9.7125L37.9767 7.21379L38.1837 7.38286L38.5 6.99563L38.3076 6.53413L38.0609 6.63697L31.7581 1.48859M32.0977 1.1204C32.1022 1.12535 32.1069 1.13023 32.1117 1.13504L31.7581 1.48859M32.0977 1.1204C31.8842 0.884502 32.0469 0.5 32.3772 0.5H58.3483C59.2936 0.5 60.1818 0.941 60.7484 1.69578M32.0977 1.1204L32.0744 1.10136L31.7581 1.48859M31.7581 1.48859C31.2069 0.937344 31.5973 0 32.3772 0H58.3483C59.4497 0 60.4866 0.514062 61.1483 1.39562M60.7484 1.69578L60.7483 1.69561L61.1483 1.39562M60.7484 1.69578L61.1483 1.39562M60.7484 1.69578L61.1483 1.39562M35.9104 34.4956H12.2533C11.151 34.4956 10.5932 33.1758 11.3471 32.3853L21.3006 24.8951L20.9099 24.0038L1.92403 27.4822C0.683481 27.6514 -0.00981231 26.0878 0.955805 25.282L0.972225 25.2683L0.987415 25.2533L13.8147 12.5418C16.0224 10.6661 19.2051 10.4784 21.6183 12.0815L34.5 21.5064V25.8759C34.5 28.8561 35.0042 31.7538 35.9104 34.4956ZM53.6253 6.76102L53.1414 6.64008L53.0193 7.12363C52.7432 8.2164 53.0151 9.17222 53.5869 9.86175C54.1483 10.5387 54.986 10.9442 55.8305 10.9905L55.8308 10.9905C57.3658 11.0735 58.6279 10.0207 58.9819 8.61627L59.1043 8.13047L58.6183 8.00898L53.6253 6.76102Z" fill="#FF8C33" stroke="#202124"/>
</svg>
